<?xml version="1.0" encoding="utf-8"?>
<!-- Generator: Adobe Illustrator 23.0.6, SVG Export Plug-In . SVG Version: 6.00 Build 0)  -->
<svg version="1.1" id="Layer_1" xmlns="http://www.w3.org/2000/svg" xmlns:xlink="http://www.w3.org/1999/xlink" x="0px" y="0px"
	 viewBox="0 0 576 512" style="enable-background:new 0 0 576 512;" xml:space="preserve">
<style type="text/css">
	.st0{fill:#959595;}
</style>
<path class="st0" d="M288,32c-80.8,0-145.5,36.8-192.6,80.6C48.6,156,17.3,208,2.5,243.7c-3.3,7.9-3.3,16.7,0,24.6
	C17.3,304,48.6,356,95.4,399.4C142.5,443.2,207.2,480,288,480s145.5-36.8,192.6-80.6c46.8-43.5,78.1-95.4,93-131.1
	c3.3-7.9,3.3-16.7,0-24.6c-14.9-35.7-46.2-87.7-93-131.1C433.5,68.8,368.8,32,288,32z M432,256c0,79.5-64.5,144-144,144
	s-144-64.5-144-144s64.5-144,144-144S432,176.5,432,256z M288,192c0,35.3-28.7,64-64,64c-11.5,0-22.3-3-31.6-8.4
	c-0.2,2.8-0.4,5.5-0.4,8.4c0,53,43,96,96,96s96-43,96-96s-43-96-96-96c-2.8,0-5.6,0.1-8.4,0.4C284.9,169.7,288,180.5,288,192z"/>
</svg>
